<?xml version="1.0" encoding="UTF-8"?>
<svg xmlns="http://www.w3.org/2000/svg" xmlns:xlink="http://www.w3.org/1999/xlink" height="275.9" preserveAspectRatio="xMidYMid meet" version="1.1" viewBox="81.6 74.6 262.1 275.9" width="262.1" zoomAndPan="magnify">
 <g id="surface1">
  <g id="change1_1"><path d="m230.97 171.75v-24.43h36.18c0.66 0 1.3-0.26 1.76-0.73 0.47-0.47 0.74-1.11 0.74-1.77v-58.328c0-1.379-1.12-2.5-2.5-2.5s-2.5 1.121-2.5 2.5v55.828h-36.18c-0.66 0-1.3 0.27-1.77 0.73-0.46 0.47-0.73 1.11-0.73 1.77v26.93c0 1.37 1.12 2.5 2.5 2.5s2.5-1.13 2.5-2.5" fill="#040505"/></g>
  <g id="change1_2"><path d="m221.16 339.06v-24.42h17.12c0.66 0 1.31-0.26 1.77-0.73 0.47-0.46 0.73-1.11 0.73-1.77v-54.16c0-1.38-1.12-2.5-2.5-2.5s-2.5 1.12-2.5 2.5v51.66h-17.12c-0.66 0-1.3 0.27-1.77 0.74-0.46 0.46-0.73 1.1-0.73 1.76v26.92c0 1.39 1.12 2.5 2.5 2.5s2.5-1.11 2.5-2.5" fill="#040505"/></g>
  <g id="change1_3"><path d="m211.64 171.75v-47.89h16.83c0.66 0 1.3-0.26 1.77-0.73 0.47-0.46 0.73-1.11 0.73-1.77v-21.551c0-1.383-1.12-2.5-2.5-2.5s-2.5 1.117-2.5 2.5v19.051h-16.83c-0.66 0-1.31 0.27-1.77 0.74-0.47 0.46-0.73 1.11-0.73 1.76v50.39c0 1.37 1.11 2.5 2.5 2.5 1.38 0 2.5-1.13 2.5-2.5" fill="#040505"/></g>
  <g id="change1_4"><path d="m255.41 184.41h38.68c0.65 0 1.3-0.26 1.77-0.73 0.46-0.46 0.73-1.11 0.73-1.77v-45.33c0-1.38-1.12-2.5-2.5-2.5-1.39 0-2.5 1.12-2.5 2.5v42.83h-36.18c-1.38 0-2.5 1.13-2.5 2.5 0 1.39 1.12 2.5 2.5 2.5" fill="#040505"/></g>
  <g id="change1_5"><path d="m303.25 289.34v-38.68c0-0.66-0.27-1.3-0.73-1.77-0.47-0.46-1.12-0.73-1.77-0.73h-45.34c-1.38 0-2.5 1.12-2.5 2.5s1.12 2.5 2.5 2.5h42.84v36.18c0 1.38 1.11 2.5 2.5 2.5 1.38 0 2.5-1.12 2.5-2.5" fill="#040505"/></g>
  <g id="change1_6"><path d="m255.41 207.09h59.29c1.38 0 2.5-1.13 2.5-2.5 0-1.39-1.12-2.5-2.5-2.5h-59.29c-1.38 0-2.5 1.11-2.5 2.5 0 1.37 1.12 2.5 2.5 2.5" fill="#040505"/></g>
  <g id="change1_7"><path d="m255.41 228.48h71.97c1.38 0 2.5-1.12 2.5-2.5s-1.12-2.5-2.5-2.5h-71.97c-1.38 0-2.5 1.12-2.5 2.5s1.12 2.5 2.5 2.5" fill="#040505"/></g>
  <g id="change1_8"><path d="m195.46 171.75v-26.93c0-0.66-0.27-1.3-0.73-1.77-0.47-0.46-1.12-0.73-1.77-0.73h-36.18v-55.828c0-1.379-1.12-2.5-2.5-2.5s-2.5 1.121-2.5 2.5v58.328c0 0.66 0.27 1.3 0.73 1.77 0.47 0.47 1.11 0.73 1.77 0.73h36.18v24.43c0 1.37 1.11 2.5 2.5 2.5 1.38 0 2.5-1.13 2.5-2.5" fill="#040505"/></g>
  <g id="change1_9"><path d="m200.84 311.37v-21.24c0-0.66-0.27-1.3-0.73-1.77-0.47-0.46-1.11-0.73-1.77-0.73h-8.91v-29.65c0-1.38-1.12-2.5-2.5-2.5s-2.5 1.12-2.5 2.5v32.15c0 0.66 0.27 1.3 0.73 1.77 0.47 0.47 1.11 0.73 1.77 0.73h8.91v18.74c0 1.38 1.12 2.5 2.5 2.5s2.5-1.12 2.5-2.5" fill="#040505"/></g>
  <g id="change1_10"><path d="m166.02 179.41h-36.18v-42.83c0-1.38-1.12-2.5-2.5-2.5s-2.5 1.12-2.5 2.5v45.33c0 0.66 0.27 1.31 0.73 1.77 0.47 0.47 1.11 0.73 1.77 0.73h38.68c1.38 0 2.5-1.11 2.5-2.5 0-1.37-1.12-2.5-2.5-2.5" fill="#040505"/></g>
  <g id="change1_11"><path d="m123.18 289.34v-36.18h42.84c1.38 0 2.5-1.12 2.5-2.5s-1.12-2.5-2.5-2.5h-45.34c-0.66 0-1.3 0.27-1.77 0.73-0.46 0.47-0.73 1.11-0.73 1.77v38.68c0 1.38 1.12 2.5 2.5 2.5s2.5-1.12 2.5-2.5" fill="#040505"/></g>
  <g id="change1_12"><path d="m166.02 202.09h-59.29c-1.38 0-2.5 1.11-2.5 2.5 0 1.37 1.12 2.5 2.5 2.5h59.29c1.38 0 2.5-1.13 2.5-2.5 0-1.39-1.12-2.5-2.5-2.5" fill="#040505"/></g>
  <g id="change1_13"><path d="m166.02 223.48h-71.973c-1.379 0-2.5 1.12-2.5 2.5s1.121 2.5 2.5 2.5h71.973c1.38 0 2.5-1.12 2.5-2.5s-1.12-2.5-2.5-2.5" fill="#040505"/></g>
  <g id="change2_1"><path d="m169.18 260.48c-1.38 0-2.5-1.12-2.5-2.5v-86.23c0-1.39 1.12-2.5 2.5-2.5h86.23c1.38 0 2.5 1.11 2.5 2.5v86.23c0 1.38-1.12 2.5-2.5 2.5h-86.23" fill="#e1b92f"/></g>
  <g id="change1_14"><path d="m255.41 166.75h-86.23c-2.76 0-5 2.23-5 5v86.23c0 2.76 2.24 5 5 5h86.23c2.76 0 5-2.24 5-5v-86.23c0-2.77-2.24-5-5-5m0 5v86.23h-86.23v-86.23h86.23" fill="#040505"/></g>
  <g id="change3_1"><path d="m255.41 257.98h-86.23v-12.5h72.28v-73.73h13.95v86.23" fill="#a68722"/></g>
  <g id="change4_1"><path d="m186.93 242.72c-1.38 0-2.5-1.11-2.5-2.5v-50.72c0-1.38 1.12-2.5 2.5-2.5h50.73c1.38 0 2.5 1.12 2.5 2.5v50.72c0 1.39-1.12 2.5-2.5 2.5h-50.73" fill="#64cbd6"/></g>
  <g id="change1_15"><path d="m237.66 184.5h-50.73c-2.76 0-5 2.24-5 5v50.72c0 2.76 2.24 5 5 5h50.73c2.76 0 5-2.24 5-5v-50.72c0-2.76-2.24-5-5-5zm0 5v50.72h-50.73v-50.72h50.73" fill="#040505"/></g>
  <g id="change5_1"><path d="m179 237.31v-55.75h46.84c1.38 0 2.5-1.12 2.5-2.5s-1.12-2.5-2.5-2.5h-49.34c-0.66 0-1.31 0.27-1.77 0.73-0.47 0.47-0.73 1.11-0.73 1.77v58.25c0 1.38 1.11 2.5 2.5 2.5 1.38 0 2.5-1.12 2.5-2.5" fill="#fff"/></g>
  <g id="change4_2"><path d="m165.61 97.828c0 6.262-5.07 11.332-11.33 11.332s-11.33-5.07-11.33-11.332 5.07-11.336 11.33-11.336 11.33 5.074 11.33 11.336" fill="#64cbd6"/></g>
  <g id="change1_16"><path d="m165.61 97.828h-2.5c0 2.442-0.98 4.642-2.58 6.242-1.61 1.61-3.8 2.59-6.25 2.59-2.44 0-4.64-0.98-6.24-2.59-1.61-1.6-2.59-3.8-2.59-6.242 0-2.449 0.98-4.64 2.59-6.25 1.6-1.601 3.8-2.586 6.24-2.586 2.45 0 4.64 0.985 6.25 2.586 1.6 1.61 2.58 3.801 2.58 6.25h5c0-7.64-6.19-13.836-13.83-13.836s-13.83 6.196-13.83 13.836c0 7.642 6.19 13.832 13.83 13.832s13.83-6.19 13.83-13.832h-2.5" fill="#040505"/></g>
  <g id="change4_3"><path d="m239.81 97.828c0 6.262-5.08 11.332-11.34 11.332s-11.33-5.07-11.33-11.332 5.07-11.336 11.33-11.336 11.34 5.074 11.34 11.336" fill="#64cbd6"/></g>
  <g id="change1_17"><path d="m239.81 97.828h-2.5c-0.01 2.442-0.99 4.642-2.59 6.242-1.61 1.61-3.8 2.59-6.25 2.59s-4.64-0.98-6.24-2.59c-1.61-1.6-2.59-3.8-2.59-6.242 0-2.449 0.98-4.64 2.59-6.25 1.6-1.601 3.79-2.586 6.24-2.586s4.64 0.985 6.25 2.586c1.6 1.61 2.58 3.801 2.59 6.25h5c-0.01-7.64-6.2-13.836-13.84-13.836s-13.83 6.196-13.83 13.836c0 7.642 6.19 13.832 13.83 13.832s13.83-6.19 13.84-13.832h-2.5" fill="#040505"/></g>
  <g id="change4_4"><path d="m278.48 88.473c0 6.261-5.07 11.336-11.33 11.336s-11.34-5.075-11.34-11.336c0-6.258 5.08-11.332 11.34-11.332s11.33 5.074 11.33 11.332" fill="#64cbd6"/></g>
  <g id="change1_18"><path d="m278.48 88.473h-2.5c0 2.449-0.98 4.64-2.59 6.246-1.6 1.601-3.8 2.586-6.24 2.59-2.45-0.004-4.64-0.989-6.25-2.59-1.6-1.606-2.58-3.797-2.59-6.246 0.01-2.446 0.99-4.637 2.59-6.246 1.61-1.602 3.8-2.586 6.25-2.586 2.44 0 4.64 0.984 6.24 2.586 1.61 1.609 2.59 3.8 2.59 6.246h5c0-7.641-6.19-13.832-13.83-13.832s-13.83 6.191-13.84 13.832c0.01 7.64 6.2 13.827 13.84 13.837 7.64-0.01 13.83-6.197 13.83-13.837h-2.5" fill="#040505"/></g>
  <g id="change4_5"><path d="m305.42 142.16c0 6.26-5.07 11.33-11.33 11.33-6.27 0-11.34-5.07-11.34-11.33s5.07-11.34 11.34-11.34c6.26 0 11.33 5.08 11.33 11.34" fill="#64cbd6"/></g>
  <g id="change1_19"><path d="m305.42 142.16h-2.5c0 2.45-0.99 4.64-2.59 6.24-1.6 1.61-3.8 2.59-6.24 2.59-2.45 0-4.64-0.98-6.25-2.59-1.6-1.6-2.59-3.79-2.59-6.24s0.99-4.64 2.59-6.25c1.61-1.6 3.8-2.59 6.25-2.59 2.44 0 4.64 0.99 6.24 2.59 1.6 1.61 2.59 3.8 2.59 6.25h5c0-7.64-6.19-13.84-13.83-13.84s-13.84 6.2-13.84 13.84 6.2 13.83 13.84 13.83 13.83-6.19 13.83-13.83h-2.5" fill="#040505"/></g>
  <g id="change4_6"><path d="m326.04 204.59c0 6.25-5.08 11.33-11.34 11.33s-11.33-5.08-11.33-11.33c0-6.27 5.07-11.34 11.33-11.34s11.34 5.07 11.34 11.34" fill="#64cbd6"/></g>
  <g id="change1_20"><path d="m326.04 204.59h-2.5c-0.01 2.44-0.99 4.63-2.59 6.24-1.61 1.6-3.8 2.58-6.25 2.59-2.45-0.01-4.64-0.99-6.25-2.59-1.6-1.61-2.58-3.8-2.58-6.24 0-2.45 0.98-4.64 2.58-6.25 1.61-1.61 3.8-2.59 6.25-2.59s4.64 0.98 6.25 2.59c1.6 1.61 2.58 3.8 2.59 6.25h5c-0.01-7.65-6.2-13.84-13.84-13.84s-13.83 6.19-13.83 13.84c0 7.64 6.19 13.82 13.83 13.83 7.64-0.01 13.83-6.19 13.84-13.83h-2.5" fill="#040505"/></g>
  <g id="change4_7"><path d="m341.14 225.98c0 6.26-5.08 11.33-11.34 11.33-6.25 0-11.33-5.07-11.33-11.33s5.08-11.34 11.33-11.34c6.26 0 11.34 5.08 11.34 11.34" fill="#64cbd6"/></g>
  <g id="change1_21"><path d="m341.14 225.98h-2.5c0 2.45-0.99 4.64-2.59 6.25-1.6 1.6-3.8 2.58-6.25 2.58-2.44 0-4.64-0.98-6.24-2.58-1.6-1.61-2.59-3.8-2.59-6.25s0.99-4.64 2.59-6.25c1.6-1.6 3.8-2.59 6.24-2.59 2.45 0 4.65 0.99 6.25 2.59 1.6 1.61 2.59 3.8 2.59 6.25h5c0-3.82-1.55-7.29-4.05-9.78-2.5-2.5-5.97-4.06-9.79-4.06-7.64 0.01-13.83 6.2-13.83 13.84s6.19 13.83 13.83 13.83c3.82 0 7.29-1.55 9.79-4.05 2.5-2.49 4.05-5.97 4.05-9.78h-2.5" fill="#040505"/></g>
  <g id="change4_8"><path d="m312.08 285.88c0 6.26-5.08 11.33-11.33 11.33-6.27 0-11.34-5.07-11.34-11.33s5.07-11.34 11.34-11.34c6.25 0 11.33 5.08 11.33 11.34" fill="#64cbd6"/></g>
  <g id="change1_22"><path d="m312.08 285.88h-2.5c0 2.44-0.99 4.64-2.59 6.24s-3.8 2.59-6.24 2.59c-2.45 0-4.64-0.99-6.25-2.59-1.6-1.6-2.59-3.8-2.59-6.24 0-2.45 0.99-4.65 2.59-6.25 1.61-1.6 3.8-2.59 6.25-2.59 2.44 0 4.64 0.99 6.24 2.59s2.59 3.8 2.59 6.25h5c0-3.82-1.55-7.29-4.05-9.79s-5.97-4.05-9.78-4.05c-7.64 0-13.84 6.19-13.84 13.84 0 7.64 6.2 13.83 13.84 13.83 3.81 0 7.28-1.55 9.78-4.05s4.05-5.97 4.05-9.78h-2.5" fill="#040505"/></g>
  <g id="change4_9"><path d="m230.14 336.73c0 6.25-5.08 11.33-11.34 11.33s-11.33-5.08-11.33-11.33c0-6.26 5.07-11.34 11.33-11.34s11.34 5.08 11.34 11.34" fill="#64cbd6"/></g>
  <g id="change1_23"><path d="m230.14 336.73h-2.5c0 2.44-0.99 4.64-2.59 6.24s-3.8 2.59-6.25 2.59c-2.44 0-4.64-0.99-6.24-2.59-1.61-1.6-2.59-3.8-2.59-6.24 0-2.45 0.98-4.64 2.59-6.25 1.6-1.6 3.8-2.59 6.24-2.59 2.45 0 4.65 0.99 6.25 2.59 1.6 1.61 2.59 3.8 2.59 6.25h5c0-7.64-6.19-13.84-13.84-13.84-7.64 0-13.83 6.2-13.83 13.84s6.19 13.83 13.83 13.83c7.65 0 13.84-6.19 13.84-13.83h-2.5" fill="#040505"/></g>
  <g id="change4_10"><path d="m209.68 309.98c0 6.26-5.08 11.34-11.34 11.34s-11.33-5.08-11.33-11.34 5.07-11.33 11.33-11.33 11.34 5.07 11.34 11.33" fill="#64cbd6"/></g>
  <g id="change1_24"><path d="m209.68 309.98h-2.5c0 2.45-0.99 4.64-2.59 6.25-1.61 1.6-3.8 2.59-6.25 2.59s-4.64-0.99-6.24-2.59c-1.61-1.61-2.59-3.8-2.59-6.25 0-2.44 0.98-4.64 2.59-6.25 1.6-1.6 3.79-2.58 6.24-2.58s4.64 0.98 6.25 2.58c1.6 1.61 2.59 3.81 2.59 6.25h5c0-7.64-6.2-13.83-13.84-13.83s-13.83 6.19-13.83 13.83 6.19 13.84 13.83 13.84 13.84-6.2 13.84-13.84h-2.5" fill="#040505"/></g>
  <g id="change4_11"><path d="m132.02 285.88c0 6.26-5.08 11.33-11.34 11.33-6.25 0-11.33-5.07-11.33-11.33s5.08-11.34 11.33-11.34c6.26 0 11.34 5.08 11.34 11.34" fill="#64cbd6"/></g>
  <g id="change1_25"><path d="m132.02 285.88h-2.5c0 2.44-0.99 4.64-2.59 6.24-1.61 1.6-3.8 2.59-6.25 2.59s-4.64-0.99-6.24-2.59-2.59-3.8-2.59-6.24c0-2.45 0.99-4.65 2.59-6.25s3.79-2.59 6.24-2.59 4.64 0.99 6.25 2.59c1.6 1.6 2.59 3.8 2.59 6.25h5c0-7.65-6.2-13.84-13.84-13.84s-13.83 6.19-13.83 13.84c0 7.64 6.19 13.83 13.83 13.83s13.84-6.19 13.84-13.83h-2.5" fill="#040505"/></g>
  <g id="change4_12"><path d="m106.73 225.98c0 6.26-5.07 11.33-11.335 11.33-6.258 0-11.333-5.07-11.333-11.33s5.075-11.34 11.333-11.34c6.265 0 11.335 5.08 11.335 11.34" fill="#64cbd6"/></g>
  <g id="change1_26"><path d="m106.73 225.98h-2.5c0 2.45-0.98 4.64-2.59 6.25-1.6 1.6-3.796 2.58-6.245 2.58-2.446 0-4.641-0.98-6.247-2.58-1.601-1.61-2.586-3.8-2.586-6.25s0.985-4.64 2.586-6.25c1.606-1.6 3.801-2.59 6.247-2.59 2.449 0 4.645 0.99 6.245 2.59 1.61 1.61 2.59 3.8 2.59 6.25h5c0-7.64-6.19-13.83-13.835-13.84-7.641 0.01-13.833 6.2-13.833 13.84s6.192 13.83 13.833 13.83c7.645 0 13.835-6.19 13.835-13.83h-2.5" fill="#040505"/></g>
  <g id="change4_13"><path d="m122.79 203.31c0 6.26-5.07 11.33-11.33 11.33s-11.34-5.07-11.34-11.33 5.08-11.33 11.34-11.33 11.33 5.07 11.33 11.33" fill="#64cbd6"/></g>
  <g id="change1_27"><path d="m122.79 203.31h-2.5c0 2.45-0.98 4.64-2.59 6.25-1.6 1.6-3.79 2.58-6.24 2.58s-4.64-0.98-6.25-2.58c-1.6-1.61-2.59-3.8-2.59-6.25s0.99-4.64 2.59-6.24c1.61-1.61 3.8-2.59 6.25-2.59s4.64 0.98 6.24 2.59c1.61 1.6 2.59 3.79 2.59 6.24h5c0-7.64-6.19-13.83-13.83-13.83-3.82 0-7.29 1.55-9.78 4.05-2.504 2.49-4.059 5.97-4.055 9.78-0.004 3.81 1.551 7.29 4.055 9.78 2.49 2.5 5.96 4.05 9.78 4.05 7.64 0 13.83-6.19 13.83-13.83h-2.5" fill="#040505"/></g>
  <g id="change4_14"><path d="m138.68 135.78c0 6.26-5.08 11.33-11.34 11.33-6.25 0-11.33-5.07-11.33-11.33s5.08-11.34 11.33-11.34c6.26 0 11.34 5.08 11.34 11.34" fill="#64cbd6"/></g>
  <g id="change1_28"><path d="m138.68 135.78h-2.5c0 2.44-0.99 4.63-2.59 6.24-1.61 1.6-3.8 2.59-6.25 2.59s-4.64-0.99-6.24-2.59c-1.6-1.61-2.59-3.8-2.59-6.24 0-2.45 0.99-4.64 2.59-6.25 1.6-1.6 3.79-2.58 6.24-2.59 2.45 0.01 4.64 0.99 6.25 2.59 1.6 1.61 2.59 3.8 2.59 6.25h5c0-7.64-6.2-13.83-13.84-13.84-7.64 0.01-13.83 6.2-13.83 13.84s6.19 13.83 13.83 13.83 13.84-6.19 13.84-13.83h-2.5" fill="#040505"/></g>
 </g>
</svg>